<svg xmlns="http://www.w3.org/2000/svg" viewBox="0 14.850000381469727 278.95001220703125 36.150001525878906" data-asc="1.011" width="278.95001220703125" height="36.150001525878906"><defs/><g fill="#000000"><g transform="translate(0, 0)"><path d="M2.45 50.90Q1.30 50.90 0.65 50.25Q0 49.60 0 48.40L0 17.80Q0 16.60 0.65 15.95Q1.30 15.30 2.50 15.30L20.45 15.30Q21.45 15.30 21.95 15.77Q22.45 16.25 22.45 17.15Q22.45 18.10 21.95 18.60Q21.45 19.10 20.45 19.10L4.65 19.10L4.65 30.90L19.45 30.90Q20.40 30.90 20.90 31.40Q21.40 31.90 21.40 32.75Q21.40 33.70 20.90 34.20Q20.40 34.70 19.45 34.70L4.65 34.70L4.65 48.40Q4.65 50.90 2.45 50.90ZM35.80 51Q32.05 51 30.10 48.77Q28.15 46.55 28.15 42.35L28.15 17.25Q28.15 16.10 28.75 15.52Q29.35 14.95 30.40 14.95Q31.50 14.95 32.10 15.52Q32.70 16.10 32.70 17.25L32.70 42Q32.70 44.60 33.77 45.88Q34.85 47.15 36.85 47.15Q37.30 47.15 37.65 47.13Q38 47.10 38.35 47.05Q38.90 47 39.15 47.35Q39.40 47.70 39.40 48.75Q39.40 49.70 38.98 50.22Q38.55 50.75 37.60 50.90Q37.15 50.95 36.70 50.97Q36.25 51 35.80 51ZM45.45 50.80Q44.40 50.80 43.80 50.15Q43.20 49.50 43.20 48.35L43.20 28.40Q43.20 27.20 43.80 26.57Q44.40 25.95 45.45 25.95Q46.55 25.95 47.15 26.57Q47.75 27.20 47.75 28.40L47.75 48.35Q47.75 49.50 47.17 50.15Q46.60 50.80 45.45 50.80M45.45 20.55Q44.10 20.55 43.32 19.82Q42.55 19.10 42.55 17.90Q42.55 16.60 43.32 15.92Q44.10 15.25 45.45 15.25Q46.90 15.25 47.63 15.92Q48.35 16.60 48.35 17.90Q48.35 19.10 47.63 19.82Q46.90 20.55 45.45 20.55ZM57.30 50.90Q56.25 50.90 55.65 50.30Q55.05 49.70 55.05 48.55L55.05 28.15Q55.05 27.00 55.65 26.42Q56.25 25.85 57.30 25.85Q58.35 25.85 58.92 26.42Q59.50 27.00 59.50 28.15L59.50 32.25L58.95 31.50Q60 28.65 62.38 27.20Q64.75 25.75 67.80 25.75Q70.75 25.75 72.65 26.80Q74.55 27.85 75.50 30.00Q76.45 32.15 76.45 35.45L76.45 48.55Q76.45 49.70 75.88 50.30Q75.30 50.90 74.20 50.90Q73.10 50.90 72.50 50.30Q71.90 49.70 71.90 48.55L71.90 35.70Q71.90 32.45 70.65 30.95Q69.40 29.45 66.65 29.45Q63.45 29.45 61.52 31.42Q59.60 33.40 59.60 36.75L59.60 48.55Q59.60 50.90 57.30 50.90ZM93.75 51Q90.80 51 88.83 49.95Q86.85 48.90 85.88 46.90Q84.90 44.90 84.90 42L84.90 29.70L81.70 29.70Q80.80 29.70 80.30 29.22Q79.80 28.75 79.80 27.95Q79.80 27.10 80.30 26.65Q80.80 26.20 81.70 26.20L84.90 26.20L84.90 20.75Q84.90 19.60 85.50 19.02Q86.10 18.45 87.20 18.45Q88.30 18.45 88.88 19.02Q89.45 19.60 89.45 20.75L89.45 26.20L95.50 26.20Q96.45 26.20 96.95 26.65Q97.45 27.10 97.45 27.95Q97.45 28.75 96.95 29.22Q96.45 29.70 95.50 29.70L89.45 29.70L89.45 41.60Q89.45 44.35 90.60 45.75Q91.75 47.15 94.40 47.15Q95.35 47.15 96 46.97Q96.65 46.80 97.15 46.80Q97.60 46.75 97.92 47.10Q98.25 47.45 98.25 48.40Q98.25 49.10 98.03 49.67Q97.80 50.25 97.15 50.45Q96.55 50.65 95.55 50.82Q94.55 51 93.75 51ZM126.75 51Q124.40 51 122.20 50.63Q120 50.25 118.05 49.50Q116.10 48.75 114.55 47.65Q113.90 47.20 113.63 46.55Q113.35 45.90 113.48 45.27Q113.60 44.65 114.03 44.20Q114.45 43.75 115.05 43.65Q115.65 43.55 116.35 44.05Q118.65 45.60 121.18 46.30Q123.70 47 126.75 47Q131.15 47 133.22 45.40Q135.30 43.80 135.30 41.20Q135.30 39.05 133.80 37.82Q132.30 36.60 128.75 35.90L123.45 34.80Q118.75 33.80 116.42 31.50Q114.10 29.20 114.10 25.35Q114.10 23.00 115.05 21.07Q116 19.15 117.75 17.75Q119.50 16.35 121.88 15.60Q124.25 14.85 127.15 14.85Q130.25 14.85 132.97 15.70Q135.70 16.55 137.90 18.20Q138.50 18.65 138.70 19.27Q138.90 19.90 138.78 20.50Q138.65 21.10 138.22 21.50Q137.80 21.90 137.18 21.95Q136.55 22.00 135.80 21.50Q133.80 20.10 131.70 19.47Q129.60 18.85 127.10 18.85Q124.55 18.85 122.68 19.65Q120.80 20.45 119.78 21.87Q118.75 23.30 118.75 25.20Q118.75 27.50 120.15 28.80Q121.55 30.10 124.85 30.80L130.10 31.85Q135.10 32.90 137.53 35.07Q139.95 37.25 139.95 40.90Q139.95 43.20 139.03 45.05Q138.10 46.90 136.40 48.22Q134.70 49.55 132.25 50.27Q129.80 51 126.75 51ZM155.45 51Q152.50 51 150.52 49.95Q148.55 48.90 147.57 46.90Q146.60 44.90 146.60 42L146.60 29.70L143.40 29.70Q142.50 29.70 142 29.22Q141.50 28.75 141.50 27.95Q141.50 27.10 142 26.65Q142.50 26.20 143.40 26.20L146.60 26.20L146.60 20.75Q146.60 19.60 147.20 19.02Q147.80 18.45 148.90 18.45Q150 18.45 150.57 19.02Q151.15 19.60 151.15 20.75L151.15 26.20L157.20 26.20Q158.15 26.20 158.65 26.65Q159.15 27.10 159.15 27.95Q159.15 28.75 158.65 29.22Q158.15 29.70 157.20 29.70L151.15 29.70L151.15 41.60Q151.15 44.35 152.30 45.75Q153.45 47.15 156.10 47.15Q157.05 47.15 157.70 46.97Q158.35 46.80 158.85 46.80Q159.30 46.75 159.63 47.10Q159.95 47.45 159.95 48.40Q159.95 49.10 159.72 49.67Q159.50 50.25 158.85 50.45Q158.25 50.65 157.25 50.82Q156.25 51 155.45 51ZM171.95 51Q169 51 167.03 49.90Q165.05 48.80 164.10 46.65Q163.15 44.50 163.15 41.25L163.15 28.15Q163.15 27.00 163.72 26.42Q164.30 25.85 165.40 25.85Q166.50 25.85 167.10 26.42Q167.70 27.00 167.70 28.15L167.70 41.25Q167.70 44.35 168.95 45.82Q170.20 47.30 172.90 47.30Q175.90 47.30 177.78 45.30Q179.65 43.30 179.65 40L179.65 28.15Q179.65 27.00 180.22 26.42Q180.80 25.85 181.90 25.85Q183 25.85 183.60 26.42Q184.20 27.00 184.20 28.15L184.20 48.55Q184.20 50.90 182 50.90Q180.90 50.90 180.32 50.30Q179.75 49.70 179.75 48.55L179.75 44.20L180.40 45.05Q179.40 47.95 177.17 49.47Q174.95 51 171.95 51ZM200.80 51Q197.60 51 195.17 49.47Q192.75 47.95 191.40 45.07Q190.05 42.20 190.05 38.35Q190.05 34.45 191.38 31.62Q192.70 28.80 195.13 27.27Q197.55 25.75 200.80 25.75Q204.05 25.75 206.40 27.37Q208.75 29.00 209.55 31.70L209 31.70L209 17.25Q209 16.10 209.57 15.52Q210.15 14.95 211.25 14.95Q212.35 14.95 212.95 15.52Q213.55 16.10 213.55 17.25L213.55 48.55Q213.55 49.70 212.95 50.30Q212.35 50.90 211.25 50.90Q210.20 50.90 209.60 50.30Q209 49.70 209 48.55L209 44L209.55 44.90Q208.80 47.70 206.42 49.35Q204.05 51 200.80 51M201.85 47.40Q204.05 47.40 205.67 46.35Q207.30 45.30 208.18 43.30Q209.05 41.30 209.05 38.35Q209.05 33.95 207.10 31.65Q205.15 29.35 201.85 29.35Q199.70 29.35 198.07 30.37Q196.45 31.40 195.55 33.40Q194.65 35.40 194.65 38.35Q194.65 42.75 196.63 45.07Q198.60 47.40 201.85 47.40ZM223.10 50.80Q222.05 50.80 221.45 50.15Q220.85 49.50 220.85 48.35L220.85 28.40Q220.85 27.20 221.45 26.57Q222.05 25.95 223.10 25.95Q224.20 25.95 224.80 26.57Q225.40 27.20 225.40 28.40L225.40 48.35Q225.40 49.50 224.82 50.15Q224.25 50.80 223.10 50.80M223.10 20.55Q221.75 20.55 220.97 19.82Q220.20 19.10 220.20 17.90Q220.20 16.60 220.97 15.92Q221.75 15.25 223.10 15.25Q224.55 15.25 225.27 15.92Q226 16.60 226 17.90Q226 19.10 225.27 19.82Q224.55 20.55 223.10 20.55ZM243.05 51Q239.45 51 236.80 49.45Q234.15 47.90 232.70 45.05Q231.25 42.20 231.25 38.35Q231.25 35.45 232.07 33.13Q232.90 30.80 234.45 29.15Q236.00 27.50 238.17 26.62Q240.35 25.75 243.05 25.75Q246.65 25.75 249.30 27.30Q251.95 28.85 253.40 31.67Q254.85 34.50 254.85 38.35Q254.85 41.25 254.02 43.60Q253.20 45.95 251.65 47.60Q250.10 49.25 247.92 50.13Q245.75 51 243.05 51M243.05 47.40Q245.25 47.40 246.87 46.35Q248.50 45.30 249.38 43.30Q250.25 41.30 250.25 38.35Q250.25 33.95 248.30 31.65Q246.35 29.35 243.05 29.35Q240.90 29.35 239.27 30.37Q237.65 31.40 236.75 33.40Q235.85 35.40 235.85 38.35Q235.85 42.75 237.82 45.07Q239.80 47.40 243.05 47.40ZM269.10 51Q266.85 51 264.57 50.47Q262.30 49.95 260.30 48.65Q259.75 48.30 259.52 47.77Q259.30 47.25 259.37 46.72Q259.45 46.20 259.80 45.80Q260.15 45.40 260.67 45.32Q261.20 45.25 261.80 45.60Q263.75 46.70 265.57 47.15Q267.40 47.60 269.20 47.60Q271.95 47.60 273.35 46.60Q274.75 45.60 274.75 43.95Q274.75 42.55 273.82 41.77Q272.90 41 270.95 40.60L266.30 39.65Q263.20 38.95 261.62 37.32Q260.05 35.70 260.05 33.15Q260.05 30.90 261.27 29.22Q262.50 27.55 264.70 26.65Q266.90 25.75 269.75 25.75Q271.95 25.75 273.92 26.32Q275.90 26.90 277.50 28.05Q278.10 28.40 278.27 28.92Q278.45 29.45 278.32 29.97Q278.20 30.50 277.85 30.85Q277.50 31.20 276.95 31.27Q276.40 31.35 275.75 31.00Q274.30 30.00 272.77 29.57Q271.25 29.15 269.75 29.15Q267.05 29.15 265.67 30.20Q264.30 31.25 264.30 32.95Q264.30 34.25 265.12 35.10Q265.95 35.95 267.75 36.35L272.40 37.30Q275.65 38 277.30 39.52Q278.95 41.05 278.95 43.65Q278.95 47.05 276.27 49.02Q273.60 51 269.10 51Z"/></g></g></svg>
